<svg width="152" height="30" viewBox="0 0 152 30" fill="none" xmlns="http://www.w3.org/2000/svg">
<path fill-rule="evenodd" clip-rule="evenodd" d="M70.7069 15.0698C70.1466 9.39043 76.4635 9.5836 78.202 11.5347C78.9554 12.3846 79.1679 13.563 79.052 15.0311C78.0089 15.205 71.9818 15.1663 70.7069 15.0504V15.0698ZM80.4235 17.2913C82.2201 17.2913 81.9496 16.5572 81.9496 14.3743C81.9496 10.0472 79.1099 7.96094 74.7828 7.96094C70.3398 7.96094 67.8672 10.3177 67.8672 14.7414V18.2378C67.8672 22.024 69.7603 24.5739 73.4499 24.8444C75.3044 24.9796 77.468 24.7864 78.8781 24.1296C79.9406 23.6274 81.6019 21.7729 81.6405 20.865L79.5929 19.9184C79.3997 20.2662 78.6077 21.3479 77.41 21.9468C76.5214 22.4104 75.1306 22.6229 73.8363 22.4297C71.9432 22.1593 71.0546 21.0388 70.8228 19.3389C70.6296 17.9674 70.7648 17.5424 70.8034 17.3492H80.4235L80.4042 17.3299L80.4235 17.2913Z" fill="black"/>
<path fill-rule="evenodd" clip-rule="evenodd" d="M39.2772 15.0698C38.717 9.39043 45.0338 9.5836 46.7723 11.5347C47.5257 12.3846 47.7382 13.563 47.6223 15.0311C46.5792 15.205 40.5521 15.1663 39.2772 15.0504V15.0698ZM48.9938 17.2913C50.7904 17.2913 50.5199 16.5572 50.5199 14.3743C50.5199 10.0472 47.6802 7.96094 43.3531 7.96094C38.9101 7.96094 36.4375 10.3177 36.4375 14.7414V18.2378C36.4375 22.024 38.3306 24.5739 42.0202 24.8444C43.8747 24.9796 46.0383 24.7864 47.4484 24.1296C48.5109 23.6274 50.1722 21.7729 50.2108 20.865L48.1632 19.9184C47.97 20.2662 47.178 21.3479 45.9803 21.9468C45.0917 22.4104 43.7009 22.6229 42.4066 22.4297C40.5135 22.1593 39.6249 21.0388 39.3931 19.3389C39.1999 17.9674 39.3351 17.5424 39.3737 17.3492H48.9938L48.9745 17.3299L48.9938 17.2913Z" fill="black"/>
<path fill-rule="evenodd" clip-rule="evenodd" d="M62.1841 12.462C61.6626 13.6984 61.199 15.0313 60.6388 16.3255L59.1127 19.9765C59.1127 19.9572 59.074 20.0152 59.0547 20.0345C58.9388 19.8993 59.0547 20.0924 58.9002 19.8027C58.3207 18.7982 54.7662 9.21672 54.3026 8.67583C53.9356 8.23153 52.7379 8.27016 51.9652 8.38607C51.0959 8.50197 51.772 9.62238 51.9459 10.0474C53.7811 14.529 55.6548 18.7982 57.3934 23.3378C57.7218 24.1877 57.7991 24.4389 58.9388 24.4389C60.2524 24.4389 60.2524 24.3809 60.6388 23.3571L62.9375 17.7357C63.942 15.3403 65.0238 12.6552 66.0476 10.1826C66.2794 9.62238 67.0135 8.44402 66.009 8.34743C63.1887 8.07699 63.7295 8.67583 62.1648 12.4234L62.1841 12.4814V12.462Z" fill="black"/>
<path fill-rule="evenodd" clip-rule="evenodd" d="M116.046 9.38997C122.749 8.13434 123.097 14.7602 122.633 15.5136C122.421 15.842 121.107 15.6681 120.643 15.6681C118.673 15.6295 114.346 15.5909 112.569 15.6295C112.124 15.6488 112.028 15.7261 112.028 14.992C112.028 14.6443 112.028 14.2387 112.047 13.9103C112.066 13.2728 112.144 12.6546 112.298 12.191C112.646 11.1092 113.225 10.4524 114.5 9.91154C115.099 9.67973 115.312 9.58315 116.084 9.40929L116.046 9.38997ZM123.831 16.692C124.198 16.0159 124.082 15.6681 124.082 14.6057C124.082 10.5683 121.725 8.0957 117.649 8.0957C113.515 8.0957 110.656 9.93086 110.656 14.258V19.0487C110.656 25.636 118.383 25.6939 121.532 23.7815C122.343 23.2792 123.734 21.927 123.85 20.9611C123.56 20.5555 123.309 20.4589 122.749 20.4396C121.918 21.5793 121.667 22.3134 120.199 23.0281C118.943 23.6269 117.321 23.7815 115.737 23.511C112.491 22.9315 111.931 20.3043 112.144 16.7692C114.23 16.7113 122.266 16.7499 123.85 16.6727H123.831V16.692Z" fill="black"/>
<path fill-rule="evenodd" clip-rule="evenodd" d="M87.8411 11.361C88.0343 11.0519 88.0729 11.0713 88.4979 10.936C88.7683 10.8588 89.0774 10.7815 89.3479 10.7429C92.6705 10.0861 93.9454 11.5542 93.617 8.61794C93.5204 7.78729 92.883 7.94183 92.0716 7.96115C89.8694 7.99978 88.6138 8.07705 86.4889 8.77248C84.8083 9.33268 84.9628 9.77699 84.9628 11.6121C84.9628 13.5246 84.7889 23.8401 85.098 24.2071C85.3491 24.4969 87.4161 24.6128 87.6672 24.1492C88.015 22.0242 87.3775 12.2496 87.8218 11.3417H87.8411V11.361Z" fill="black"/>
<path fill-rule="evenodd" clip-rule="evenodd" d="M128.507 24.4007C128.778 23.5314 128.604 15.5919 128.604 14.0272C128.604 11.0137 128.198 10.4535 129.821 9.98985C131.212 9.56486 132.699 9.25578 134.341 9.35237C138.205 9.62281 138.688 11.825 138.688 15.476V23.3962C138.688 23.7052 138.475 24.9995 140.001 24.3427C140.214 23.7632 140.194 13.6795 140.021 12.675C139.712 10.9557 139.016 9.68077 137.78 8.92739C136.041 7.90356 132.583 7.9422 130.71 8.40582C128.488 9.00466 127.31 9.04329 127.29 11.0137V19.919C127.29 24.4586 126.827 24.6325 128.565 24.42L128.546 24.4007H128.507Z" fill="black"/>
<path fill-rule="evenodd" clip-rule="evenodd" d="M95.1641 8.57937C95.2027 9.29412 98.023 15.7075 98.5253 16.9052C99.4139 18.9335 100.283 21.0005 101.133 23.0481C101.384 23.6856 101.558 24.6708 102.505 24.5549C103.2 24.4776 103.451 23.28 103.702 22.7197C104.765 20.3051 109.652 9.15889 109.556 8.54074C108.628 8.3862 108.281 8.40551 108.029 9.06231C107.585 10.0861 104.263 18.3347 102.427 22.6425C102.215 22.4493 99.7423 16.2484 99.4332 15.5723C98.8151 14.1814 97.3276 10.3759 96.6322 8.92709C96.3424 8.30893 95.9174 8.57937 95.1641 8.57937V8.61801V8.57937Z" fill="black"/>
<path fill-rule="evenodd" clip-rule="evenodd" d="M145.152 8.50149C142.699 8.59808 141.462 8.05719 141.501 9.21624C141.54 10.2014 143.046 9.73781 145.152 9.81508C145.191 11.7275 144.939 19.0875 145.287 20.6135C145.48 22.1782 146.021 23.3952 147.277 24.1486C147.837 24.4577 151.14 25.2884 151.681 24.7668C151.874 24.6122 151.855 24.7088 151.874 24.2259C151.874 23.7623 151.874 23.8782 151.7 23.685C151.43 23.4146 146.832 24.477 146.601 19.2999L146.62 9.8344C147.682 9.73781 151.16 9.87303 151.507 9.79576C152.068 9.69917 151.932 9.21624 151.836 8.6174C150.715 8.57876 147.972 8.59808 146.639 8.52081C146.562 6.76292 147.161 4.75391 145.847 4.75391C144.63 4.77322 145.384 6.02886 145.133 8.48217V8.50149H145.152Z" fill="black"/>
<path fill-rule="evenodd" clip-rule="evenodd" d="M5.60206 0H24.2627C27.3535 0 29.8648 2.51127 29.8648 5.60206V24.3979C29.8648 27.4887 27.3535 30 24.2627 30H5.60206C2.51127 30 0 27.4887 0 24.3979V5.60206C0 2.51127 2.51127 0 5.60206 0Z" fill="#FFD500"/>
<path fill-rule="evenodd" clip-rule="evenodd" d="M15.7491 11.3962C16.7343 9.65768 18.5502 10.0247 18.5502 11.3962C18.5502 12.1303 17.6229 13.4825 16.0582 11.8599C15.8844 11.686 15.8457 11.5701 15.7491 11.3962H15.7685H15.7491ZM13.914 11.3962C13.7208 11.8019 13.0061 12.4973 12.5424 12.5939C11.7697 12.7292 11.1129 12.111 11.1129 11.3962C11.1323 10.1406 12.8129 9.54177 13.914 11.3962ZM14.8412 12.3235C15.6139 12.8257 15.8457 13.8109 17.4877 13.7723C20.1342 13.695 20.5012 9.7929 18.0479 9.1361C16.4059 8.6918 15.5946 9.98607 14.8992 10.5463C14.6287 10.2565 14.0685 9.03952 12.3493 9.05883C10.3403 9.05883 9.21984 11.3383 10.4948 12.8837C10.997 13.5018 11.8663 13.9075 12.9481 13.6757C13.9333 13.4632 14.4355 12.6519 14.8605 12.3042L14.8412 12.3235Z" fill="black"/>
<path d="M14.8426 3.96094C16.9096 3.96094 18.7834 4.79159 20.1356 6.16313C21.4878 7.51535 22.3378 9.38914 22.3378 11.4561C22.3378 13.5231 21.5071 15.3969 20.1356 16.7491C19.672 17.2127 19.1697 17.5991 18.5902 17.9468C18.8027 18.082 18.9379 18.3138 18.9379 18.5842C18.9379 19.0092 18.6095 19.3376 18.1845 19.3376H11.52C11.095 19.3376 10.7666 19.0092 10.7666 18.5842C10.7666 18.3331 10.9019 18.082 11.095 17.9468C10.5155 17.6184 10.0133 17.2127 9.53031 16.7491C8.17809 15.3969 7.32812 13.5231 7.32812 11.4561C7.32812 9.38914 8.15878 7.51535 9.53031 6.16313C10.8825 4.81091 12.7563 3.96094 14.8233 3.96094H14.8426ZM16.446 24.2443C16.446 24.2829 16.446 24.3022 16.446 24.3408C16.446 25.2294 15.7312 25.9442 14.8426 25.9442C13.954 25.9442 13.2393 25.2294 13.2393 24.3408C13.2393 24.3022 13.2393 24.2829 13.2393 24.2443H11.52C11.095 24.2443 10.7666 23.9159 10.7666 23.4909C10.7666 23.0659 11.095 22.7375 11.52 22.7375H18.1845C18.6095 22.7375 18.9379 23.0659 18.9379 23.4909C18.9379 23.9159 18.6095 24.2443 18.1845 24.2443H16.446H16.4653H16.446ZM11.5393 20.2649H18.2038C18.6288 20.2649 18.9572 20.5933 18.9572 21.0182C18.9572 21.4432 18.6288 21.7716 18.2038 21.7716H11.5393C11.1143 21.7716 10.7859 21.4432 10.7859 21.0182C10.7859 20.5933 11.1143 20.2649 11.5393 20.2649ZM18.9765 7.32217C17.9334 6.27903 16.4653 5.62224 14.8619 5.62224C13.2586 5.62224 11.7905 6.27903 10.7473 7.32217C9.70417 8.36532 9.04738 9.83344 9.04738 11.4368C9.04738 13.0401 9.70417 14.5083 10.7473 15.5514C11.7905 16.5945 13.2586 17.2513 14.8619 17.2513C16.4653 17.2513 17.9334 16.5945 18.9765 15.5514C20.0197 14.5083 20.6765 13.0401 20.6765 11.4368C20.6765 9.83344 20.0197 8.36532 18.9765 7.32217Z" fill="black"/>
</svg>
